<?xml version="1.0" encoding="iso-8859-1"?>
<!-- Generator: Adobe Illustrator 19.0.0, SVG Export Plug-In . SVG Version: 6.00 Build 0)  -->
<svg version="1.1" id="Capa_1" xmlns="http://www.w3.org/2000/svg" xmlns:xlink="http://www.w3.org/1999/xlink" x="0px" y="0px"
	 viewBox="0 0 380 380" style="enable-background:new 0 0 380 380;" xml:space="preserve">
<g>
	<g>
		<path d="M362.88,44.08h-57.92v-25.6c0-4.418-3.582-8-8-8s-8,3.582-8,8V44H198V18.48c0-4.418-3.582-8-8-8s-8,3.582-8,8V44H91.04
			V18.48c0-4.418-3.582-8-8-8s-8,3.582-8,8V44H17.12C7.665,44,0,51.665,0,61.12c0,0.027,0,0.053,0,0.08v291.2
			c0,9.455,7.665,17.12,17.12,17.12h345.76c9.455,0,17.12-7.665,17.12-17.12V61.2C380,51.745,372.335,44.08,362.88,44.08z
			 M364,352.4c0,0.619-0.501,1.12-1.12,1.12H17.12c-0.619,0-1.12-0.501-1.12-1.12V156.8h348V352.4z M364,140.8H16V61.2
			c0-0.619,0.501-1.12,1.12-1.12h58V86c0,4.418,3.582,8,8,8s8-3.582,8-8V60.4H182V86c0,4.418,3.582,8,8,8s8-3.582,8-8V60.4h90.96V86
			c0,4.418,3.582,8,8,8s8-3.582,8-8V60.4h58c0.619,0,1.12,0.501,1.12,1.12L364,140.8z"/>
	</g>
</g>
<g>
	<g>
		<path d="M160.8,192.4c-1.427-1.914-3.693-3.018-6.08-2.96c-1.655-0.202-3.323,0.258-4.64,1.28c-0.8,0.853-2.56,3.147-5.28,6.88
			c-2.684,3.739-5.799,7.149-9.28,10.16c-4.228,3.496-8.911,6.403-13.92,8.64c-2.795,1.251-5.473,2.75-8,4.48
			c-1.602,1.301-2.468,3.302-2.32,5.36c0.009,2.099,0.842,4.11,2.32,5.6c1.403,1.508,3.38,2.351,5.44,2.32
			c4.213,0,12.427-4.667,24.64-14v65.44c-0.185,3.017,0.724,5.999,2.56,8.4c1.794,1.978,4.371,3.062,7.04,2.96
			c6.56,0,9.84-4.827,9.84-14.48V200.4C163.248,197.551,162.433,194.739,160.8,192.4z"/>
	</g>
</g>
<g>
	<g>
		<path d="M270.88,258.24c-2.828-1.091-5.852-1.581-8.88-1.44h-3.12v-56c0-8.32-3.653-12.48-10.96-12.48
			c-2.143-0.055-4.218,0.752-5.76,2.24c-2.249,2.254-4.309,4.689-6.16,7.28c0,0-42.16,56.48-42.88,57.52
			c-0.621,0.924-1.131,1.917-1.52,2.96c-1.801,4.162-0.471,9.017,3.2,11.68c2.921,2.232,6.584,3.262,10.24,2.88h36.08V286
			c-0.168,2.879,0.713,5.721,2.48,8c3.585,3.601,9.41,3.614,13.011,0.029c0.01-0.01,0.02-0.019,0.029-0.029
			c1.767-2.279,2.648-5.121,2.48-8v-13.12h4.4c2.797,0.156,5.579-0.511,8-1.92c1.893-1.423,2.92-3.72,2.72-6.08
			C274.629,262.18,273.286,259.526,270.88,258.24z M241.12,256.72h-30.88l30.88-41.76V256.72z"/>
	</g>
</g>
<g>
</g>
<g>
</g>
<g>
</g>
<g>
</g>
<g>
</g>
<g>
</g>
<g>
</g>
<g>
</g>
<g>
</g>
<g>
</g>
<g>
</g>
<g>
</g>
<g>
</g>
<g>
</g>
<g>
</g>
</svg>
